<svg xmlns="http://www.w3.org/2000/svg" width="512" height="512" viewBox="0 0 512 512"><g><rect width="512" height="512" fill="#0f172a"/><g transform="translate(-501.38823009435487, -501.3881915715994) scale(5.0492546104773295)"><g stroke="#ffffff" stroke-width="2.5" fill="none"><path d="M 180 150 Q 188.97114317029974 172.5 165 175.98076211353316"/><path d="M 180 150 L 159 165.5884572681199"/><path d="M 165 175.98076211353316 Q 150 195 135 175.98076211353316"/><path d="M 165 175.98076211353316 L 141 165.5884572681199"/><path d="M 135 175.98076211353316 Q 111.02885682970026 172.5 120 150"/><path d="M 135 175.98076211353316 L 132 150"/><path d="M 120 150 Q 111.02885682970026 127.50000000000001 135 124.01923788646684"/><path d="M 120 150 L 141 134.4115427318801"/><path d="M 135 124.01923788646684 Q 150 105 165 124.01923788646684"/><path d="M 135 124.01923788646684 L 159 134.4115427318801"/><path d="M 165 124.01923788646684 Q 188.97114317029974 127.49999999999997 180 150"/><path d="M 165 124.01923788646684 L 168 150"/></g></g></g></svg>