<svg width="1024" height="1024" viewBox="0 0 1024 1024" fill="none" xmlns="http://www.w3.org/2000/svg">
<rect width="1024" height="1024" rx="200" fill="white"/>
<g transform="translate(22, 267)">
<path d="M925 406V624" stroke="black" stroke-width="14" stroke-linecap="round" transform="translate(0, -155)"/>
<path d="M870 522.5V629" stroke="black" stroke-width="14" stroke-linecap="round" transform="translate(0, -155)"/>
<path d="M816 490V629" stroke="black" stroke-width="14" stroke-linecap="round" transform="translate(0, -155)"/>
<path d="M762 522V629" stroke="black" stroke-width="14" stroke-linecap="round" transform="translate(0, -155)"/>
<path d="M707 456V629" stroke="black" stroke-width="14" stroke-linecap="round" transform="translate(0, -155)"/>
<path d="M653 522.5V629" stroke="black" stroke-width="14" stroke-linecap="round" transform="translate(0, -155)"/>
<path d="M599 489.5V629" stroke="black" stroke-width="14" stroke-linecap="round" transform="translate(0, -155)"/>
<path d="M544 522V629" stroke="#FC0404" stroke-width="14" stroke-linecap="round" transform="translate(0, -155)"/>
<path d="M490 425.5V629" stroke="black" stroke-width="14" stroke-linecap="round" transform="translate(0, -155)"/>
<path d="M436 522V629" stroke="black" stroke-width="14" stroke-linecap="round" transform="translate(0, -155)"/>
<path d="M382 490V629" stroke="black" stroke-width="14" stroke-linecap="round" transform="translate(0, -155)"/>
<path d="M328 523V629" stroke="black" stroke-width="14" stroke-linecap="round" transform="translate(0, -155)"/>
<path d="M273 458V629" stroke="black" stroke-width="14" stroke-linecap="round" transform="translate(0, -155)"/>
<path d="M219 521V629" stroke="black" stroke-width="14" stroke-linecap="round" transform="translate(0, -155)"/>
<path d="M164 489V629" stroke="black" stroke-width="14" stroke-linecap="round" transform="translate(0, -155)"/>
<path d="M110 519V629" stroke="black" stroke-width="14" stroke-linecap="round" transform="translate(0, -155)"/>
<path d="M56 405.5L56 640" stroke="black" stroke-width="14" stroke-linecap="round" transform="translate(0, -155)"/>
</g>
</svg>
